<?xml version="1.0" encoding="UTF-8" standalone="no"?>
<svg
   xmlns:dc="http://purl.org/dc/elements/1.1/"
   xmlns:cc="http://creativecommons.org/ns#"
   xmlns:rdf="http://www.w3.org/1999/02/22-rdf-syntax-ns#"
   xmlns:svg="http://www.w3.org/2000/svg"
   xmlns="http://www.w3.org/2000/svg"
   xmlns:xlink="http://www.w3.org/1999/xlink"
   width="48"
   height="48"
   version="1.1"
   id="svg105">
  <metadata
     id="metadata109">
    <rdf:RDF>
      <cc:Work
         rdf:about="">
        <dc:format>image/svg+xml</dc:format>
        <dc:type
           rdf:resource="http://purl.org/dc/dcmitype/StillImage" />
        <dc:title></dc:title>
      </cc:Work>
    </rdf:RDF>
  </metadata>
  <defs
     id="defs39">
    <linearGradient
       id="linearGradient1880">
      <stop
         offset="0"
         stop-color="#b8babc"
         id="stop1874"
         style="stop-color:#ae7a00;stop-opacity:1" />
      <stop
         offset=".37383178"
         stop-color="#5d6062"
         id="stop1876"
         style="stop-color:#470000;stop-opacity:1" />
      <stop
         offset="1"
         stop-color="#585b5d"
         id="stop1878"
         style="stop-color:#410000;stop-opacity:1" />
    </linearGradient>
    <linearGradient
       id="linearGradient1584">
      <stop
         offset="0"
         stop-color="#8d8d8d"
         id="stop1580"
         style="stop-color:#d9b73d;stop-opacity:1" />
      <stop
         offset="1"
         stop-color="#747474"
         id="stop1582"
         style="stop-color:#d1aa33;stop-opacity:1" />
    </linearGradient>
    <linearGradient
       id="linearGradient1534">
      <stop
         offset="0"
         stop-color="#8d8d8d"
         id="stop1529"
         style="stop-color:#ffe50e;stop-opacity:1" />
      <stop
         offset="1"
         stop-color="#747474"
         id="stop1532"
         style="stop-color:#f7cf00;stop-opacity:1" />
    </linearGradient>
    <linearGradient
       id="linearGradient1140">
      <stop
         offset="0"
         stop-color="#8d8d8d"
         id="stop1136"
         style="stop-color:#ffffff;stop-opacity:1" />
      <stop
         offset="1"
         stop-color="#747474"
         id="stop1138"
         style="stop-color:#f4f4f4;stop-opacity:1" />
    </linearGradient>
    <linearGradient
       id="linearGradient1553">
      <stop
         offset="0"
         stop-color="#858585"
         id="stop1549"
         style="stop-color:#458545;stop-opacity:1" />
      <stop
         offset="1"
         stop-color="#5f5f5f"
         id="stop1551"
         style="stop-color:#235f23;stop-opacity:1" />
    </linearGradient>
    <linearGradient
       id="linearGradient1547">
      <stop
         offset="0"
         stop-color="#858585"
         id="stop1543"
         style="stop-color:#4545c5;stop-opacity:1" />
      <stop
         offset="1"
         stop-color="#5f5f5f"
         id="stop1545"
         style="stop-color:#23239b;stop-opacity:1" />
    </linearGradient>
    <linearGradient
       id="linearGradient1541">
      <stop
         offset="0"
         stop-color="#858585"
         id="stop1537"
         style="stop-color:#c54545;stop-opacity:1" />
      <stop
         offset="1"
         stop-color="#5f5f5f"
         id="stop1539"
         style="stop-color:#9b2323;stop-opacity:1" />
    </linearGradient>
    <linearGradient
       id="linearGradient1535">
      <stop
         offset="0"
         stop-color="#858585"
         id="stop1531"
         style="stop-color:#454545;stop-opacity:1" />
      <stop
         offset="1"
         stop-color="#5f5f5f"
         id="stop1533"
         style="stop-color:#232323;stop-opacity:1" />
    </linearGradient>
    <linearGradient
       id="d">
      <stop
         offset="0"
         stop-color="#b8babc"
         id="stop2" />
      <stop
         offset=".37383178"
         stop-color="#5d6062"
         id="stop4"
         style="stop-color:#470000;stop-opacity:1" />
      <stop
         offset="1"
         stop-color="#585b5d"
         id="stop6" />
    </linearGradient>
    <linearGradient
       id="c">
      <stop
         offset="0"
         stop-color="#8d8d8d"
         id="stop9" />
      <stop
         offset="1"
         stop-color="#747474"
         id="stop11" />
    </linearGradient>
    <linearGradient
       id="b">
      <stop
         offset="0"
         stop-color="#858585"
         id="stop14" />
      <stop
         offset="1"
         stop-color="#5f5f5f"
         id="stop16" />
    </linearGradient>
    <linearGradient
       id="a">
      <stop
         offset="0"
         stop-color="#fff"
         id="stop19"
         style="stop-color:#d7bd2d;stop-opacity:1" />
      <stop
         offset="1"
         stop-color="#fff"
         stop-opacity=".78698224"
         id="stop21"
         style="stop-color:#8c4000;stop-opacity:0.78823531" />
    </linearGradient>
    <linearGradient
       id="e">
      <stop
         offset="0"
         id="stop24" />
      <stop
         offset="1"
         stop-opacity="0"
         id="stop26" />
    </linearGradient>
    <linearGradient
       xlink:href="#a"
       id="h"
       x1="14.209836"
       x2="39.060543"
       y1="5.8892856"
       y2="40.625908"
       gradientTransform="matrix(1 0 0 1.02175 0 -.065543)"
       gradientUnits="userSpaceOnUse" />
    <linearGradient
       xlink:href="#b"
       id="i"
       x1="20.086588"
       x2="20.086588"
       y1="22.048241"
       y2="25.848938"
       gradientUnits="userSpaceOnUse" />
    <linearGradient
       xlink:href="#b"
       id="j"
       x1="20.086588"
       x2="20.086588"
       y1="29.03092"
       y2="32.964199"
       gradientUnits="userSpaceOnUse" />
    <linearGradient
       xlink:href="#b"
       id="k"
       x1="20.086588"
       x2="20.086588"
       y1="36.10199"
       y2="39.814297"
       gradientUnits="userSpaceOnUse" />
    <linearGradient
       xlink:href="#linearGradient1584"
       id="m"
       x1="36.356823"
       x2="36.356823"
       y1="38.036388"
       y2="40.161388"
       gradientTransform="matrix(1.10293 0 0 1 -4.117285 0)"
       gradientUnits="userSpaceOnUse" />
    <linearGradient
       xlink:href="#linearGradient1140"
       id="o"
       x1="36.356823"
       x2="36.356823"
       y1="25.411388"
       y2="26.911388"
       gradientTransform="matrix(1.10293 0 0 1 -4.117285 0)"
       gradientUnits="userSpaceOnUse" />
    <linearGradient
       xlink:href="#linearGradient1880"
       id="g"
       x1="19.760065"
       x2="25.864925"
       y1="8.8124981"
       y2="42.5625"
       gradientUnits="userSpaceOnUse" />
    <linearGradient
       xlink:href="#c"
       id="l"
       x1="36.356823"
       x2="36.356823"
       y1="38.036388"
       y2="40.161388"
       gradientTransform="matrix(1.10293,0,0,1,-3.492285,0.625)"
       gradientUnits="userSpaceOnUse" />
    <linearGradient
       xlink:href="#c"
       id="n"
       x1="36.356823"
       x2="36.356823"
       y1="25.411388"
       y2="26.911388"
       gradientTransform="matrix(1.10293 0 0 1 -3.492285 .625)"
       gradientUnits="userSpaceOnUse" />
    <radialGradient
       xlink:href="#e"
       id="f"
       cx="25.375"
       cy="43.375"
       r="17.125"
       fx="25.375"
       fy="43.375"
       gradientTransform="matrix(1.16058 0 0 .34307 -4.324818 27.11953)"
       gradientUnits="userSpaceOnUse" />
    <linearGradient
       xlink:href="#linearGradient1535"
       id="linearGradient1456"
       gradientUnits="userSpaceOnUse"
       x1="20.086588"
       y1="29.03092"
       x2="20.086588"
       y2="32.964199"
       gradientTransform="matrix(1.7029333,0,0,1.7029333,-19.357588,-26.822127)" />
    <linearGradient
       xlink:href="#linearGradient1541"
       id="linearGradient1498"
       gradientUnits="userSpaceOnUse"
       gradientTransform="matrix(1.7028,0,0,1.7028,-8.8129995,-26.818353)"
       x1="20.086588"
       y1="29.03092"
       x2="20.086588"
       y2="32.964199" />
    <linearGradient
       xlink:href="#linearGradient1547"
       id="linearGradient1513"
       gradientUnits="userSpaceOnUse"
       gradientTransform="matrix(1.7028,0,0,1.7028,-19.355255,-16.414093)"
       x1="20.086588"
       y1="29.03092"
       x2="20.086588"
       y2="32.964199" />
    <linearGradient
       xlink:href="#linearGradient1553"
       id="linearGradient1528"
       gradientUnits="userSpaceOnUse"
       gradientTransform="matrix(1.7028,0,0,1.7028,-8.8129999,-16.414095)"
       x1="20.086588"
       y1="29.03092"
       x2="20.086588"
       y2="32.964199" />
    <linearGradient
       xlink:href="#linearGradient1699"
       id="m-4"
       x1="36.356823"
       x2="36.356823"
       y1="38.036388"
       y2="40.161388"
       gradientTransform="matrix(1.10293,0,0,1,-4.117285,0)"
       gradientUnits="userSpaceOnUse" />
    <linearGradient
       id="linearGradient1699">
      <stop
         offset="0"
         stop-color="#8d8d8d"
         id="stop1695"
         style="stop-color:#ffb000;stop-opacity:1" />
      <stop
         offset="1"
         stop-color="#747474"
         id="stop1697"
         style="stop-color:#ff9a00;stop-opacity:1" />
    </linearGradient>
    <linearGradient
       xlink:href="#d"
       id="linearGradient1831"
       gradientUnits="userSpaceOnUse"
       x1="19.760065"
       y1="8.8124981"
       x2="25.864925"
       y2="42.5625"
       gradientTransform="translate(45.311795,0.38283641)" />
  </defs>
  <path
     fill="url(#f)"
     d="M45 42a19.875001 5.875 0 0 1-39.75 0A19.875001 5.875 0 1 1 45 42z"
     id="path41" />
  <rect
     width="36.979858"
     height="42.104137"
     x="6.5100656"
     y="2.5104303"
     fill="url(#g)"
     stroke="#333"
     rx="2"
     ry="2"
     id="rect43"
     style="stroke:#170000;stroke-opacity:1" />
  <rect
     width="6.933423"
     height="10.871767"
     x="33.140106"
     y="30.225506"
     fill="url(#l)"
     stroke="#7d7d7d"
     rx="1.5254447"
     ry="1.3830814"
     id="rect93"
     style="fill:url(#l);stroke:#ffa000;stroke-opacity:1" />
  <path
     fill="#2e3436"
     d="M9.9822237 5.1161175H39.957116C41.088875 5.1161175 42 6.4933386 42 8.204057v6.961337c0 3.319618-3.928311 4.430801-5.060068 4.430801H12.999408c-1.131757 0-5.0600682-1.506485-5.0600682-4.430801V8.204057c0-1.7107184.9111262-3.0879395 2.0428839-3.0879395z"
     id="path45"
     style="fill:#110000;fill-opacity:1" />
  <path
     fill="#babdb6"
     d="M11 6h28.16142C40.143997 6 41 6.8560034 41 7.9192899v4.3267741C41 14.309351 37.309351 15 36.246064 15H13.753936C12.690649 15 9 14.063654 9 12.246064V7.9192899C9 6.8560034 9.8560033 6 11 6z"
     id="path47"
     style="fill:#b07f00;fill-opacity:1" />
  <rect
     width="25.25"
     height="5"
     x="12.25"
     y="7"
     fill="#777b5e"
     rx="1"
     ry="1"
     id="rect49" />
  <rect
     width="35"
     height="40"
     x="7.3736029"
     y="3.5238943"
     fill="none"
     stroke="url(#h)"
     opacity=".5"
     rx="1"
     ry="1"
     id="rect51" />
  <rect
     width="6.933423"
     height="10.871767"
     x="32.515106"
     y="29.600506"
     fill="url(#m)"
     stroke="#343434"
     rx="1.5254447"
     ry="1.3830814"
     id="rect95"
     style="fill:url(#m-4);stroke:#e95700;stroke-opacity:1" />
  <g
     id="g1446">
    <rect
       width="8.5139999"
       height="8.5139999"
       x="11.143744"
       y="22.097179"
       rx="1"
       ry="1"
       id="rect61"
       style="stroke:#313131;stroke-width:1;stroke-opacity:1" />
    <rect
       width="8.5139999"
       height="8.5139999"
       x="21.686001"
       y="22.097179"
       rx="1"
       ry="1"
       id="rect61-7"
       style="stroke:#af3131;stroke-width:1;stroke-opacity:1" />
    <rect
       width="8.5139999"
       height="8.5139999"
       x="11.143744"
       y="32.501438"
       rx="1"
       ry="1"
       id="rect61-9"
       style="stroke:#3131af;stroke-width:1;stroke-opacity:1" />
    <rect
       width="8.5139999"
       height="8.5139999"
       x="21.686001"
       y="32.501438"
       rx="1"
       ry="1"
       id="rect61-3"
       style="stroke:#317031;stroke-width:1;stroke-opacity:1" />
  </g>
  <rect
     width="8.5146666"
     height="8.5146666"
     x="10.443745"
     y="21.397179"
     fill="url(#j)"
     rx="1"
     ry="1"
     id="rect81"
     style="fill:url(#linearGradient1456);fill-opacity:1;stroke:#0b0b0b;stroke-width:1;stroke-opacity:1" />
  <path
     style="color:#000000;font-style:normal;font-variant:normal;font-weight:normal;font-stretch:normal;font-size:medium;line-height:normal;font-family:sans-serif;font-variant-ligatures:normal;font-variant-position:normal;font-variant-caps:normal;font-variant-numeric:normal;font-variant-alternates:normal;font-variant-east-asian:normal;font-feature-settings:normal;font-variation-settings:normal;text-indent:0;text-align:start;text-decoration:none;text-decoration-line:none;text-decoration-style:solid;text-decoration-color:#000000;letter-spacing:normal;word-spacing:normal;text-transform:none;writing-mode:lr-tb;direction:ltr;text-orientation:mixed;dominant-baseline:auto;baseline-shift:baseline;text-anchor:start;white-space:normal;shape-padding:0;shape-margin:0;inline-size:0;clip-rule:nonzero;display:inline;overflow:visible;visibility:visible;isolation:auto;mix-blend-mode:normal;color-interpolation:sRGB;color-interpolation-filters:linearRGB;solid-color:#000000;solid-opacity:1;vector-effect:none;fill:#fdfdfd;fill-opacity:1;fill-rule:nonzero;stroke:none;stroke-linecap:butt;stroke-linejoin:miter;stroke-miterlimit:4;stroke-dasharray:none;stroke-dashoffset:0;stroke-opacity:1;color-rendering:auto;image-rendering:auto;shape-rendering:auto;text-rendering:auto;enable-background:accumulate;stop-color:#000000;stop-opacity:1;opacity:1"
     d="M 34.480469 21.542969 C 33.495091 21.542969 32.640625 22.28707 32.640625 23.255859 L 32.640625 27.09375 C 32.640625 28.062539 33.495091 28.808594 34.480469 28.808594 L 38.734375 28.808594 C 39.719753 28.808594 40.574219 28.062539 40.574219 27.09375 L 40.574219 23.255859 C 40.574219 22.28707 39.719753 21.542969 38.734375 21.542969 L 34.480469 21.542969 z M 34.480469 22.542969 L 38.734375 22.542969 C 39.233138 22.542969 39.574219 22.879017 39.574219 23.255859 L 39.574219 27.09375 C 39.574219 27.470593 39.233138 27.808594 38.734375 27.808594 L 34.480469 27.808594 C 33.981706 27.808594 33.640625 27.470593 33.640625 27.09375 L 33.640625 23.255859 C 33.640625 22.879017 33.981706 22.542969 34.480469 22.542969 z "
     id="rect97" />
  <path
     id="path934"
     style="fill:#764ea6;stroke:none;stroke-width:1px;stroke-linecap:butt;stroke-linejoin:miter;stroke-opacity:1;fill-opacity:1"
     d="M 40.019531 22.033203 L 39.3125 22.740234 C 39.475519 22.872988 39.574219 23.056994 39.574219 23.255859 L 40.574219 23.255859 C 40.574219 22.769942 40.358154 22.340528 40.019531 22.033203 z " />
  <path
     style="fill:#764ea6;fill-opacity:1;stroke:none;stroke-width:1px;stroke-linecap:butt;stroke-linejoin:miter;stroke-opacity:1"
     d="m 38.734375,21.542969 h -1.918946 v 1 h 1.918946 z"
     id="path1142-95-2" />
  <path
     id="path990"
     style="fill:#764ea6;stroke:none;stroke-width:1px;stroke-linecap:butt;stroke-linejoin:miter;stroke-opacity:1;fill-opacity:1"
     d="M 34.480469 21.542969 C 33.989328 21.542969 33.531814 21.727804 33.195312 22.033203 L 33.902344 22.740234 C 34.048239 22.621425 34.244911 22.542969 34.480469 22.542969 L 34.480469 21.542969 z " />
  <path
     style="fill:#764ea6;fill-opacity:1;stroke:none;stroke-width:1px;stroke-linecap:butt;stroke-linejoin:miter;stroke-opacity:1"
     d="m 32.640625,23.255859 v 1.918945 h 1 v -1.918945 z"
     id="path1142-9" />
  <path
     id="path1046"
     style="fill:#764ea6;stroke:none;stroke-width:1px;stroke-linecap:butt;stroke-linejoin:miter;stroke-opacity:1;fill-opacity:1"
     d="M 32.640625 27.09375 C 32.640625 27.57966 32.856697 28.008592 33.195312 28.316406 L 33.902344 27.609375 C 33.739375 27.476111 33.640625 27.292583 33.640625 27.09375 L 32.640625 27.09375 z " />
  <path
     style="fill:#764ea6;fill-opacity:1;stroke:none;stroke-width:1px;stroke-linecap:butt;stroke-linejoin:miter;stroke-opacity:1"
     d="m 36.607422,27.808594 h -2.126953 v 1 h 2.126953 z"
     id="path1142-95" />
  <path
     id="path1113"
     style="fill:#764ea6;stroke:none;stroke-width:1px;stroke-linecap:butt;stroke-linejoin:miter;stroke-opacity:1;fill-opacity:1"
     d="M 39.3125 27.609375 C 39.166598 27.728683 38.969977 27.808594 38.734375 27.808594 L 38.734375 28.808594 C 39.225522 28.808594 39.683029 28.6223 40.019531 28.316406 L 39.3125 27.609375 z " />
  <path
     style="fill:#764ea6;fill-opacity:1;stroke:none;stroke-width:1px;stroke-linecap:butt;stroke-linejoin:miter;stroke-opacity:1"
     d="m 39.574219,25.174805 v 1.918945 h 1 v -1.918946 z"
     id="path1142" />
  <rect
     width="6.933423"
     height="6.2664795"
     x="32.515106"
     y="21.417002"
     fill="url(#o)"
     stroke="#343434"
     rx="1.3394771"
     ry="1.2144693"
     id="rect99"
     style="stroke:#b3b3b3;stroke-opacity:1" />
  <g
     aria-label="$"
     id="text1527"
     style="font-style:normal;font-weight:normal;font-size:4px;line-height:1.25;font-family:sans-serif;fill:#764ea6;fill-opacity:1;stroke:none">
    <path
       d="m 36.963264,24.994577 q 0,0.302735 -0.236328,0.503907 -0.236328,0.199218 -0.61914,0.236328 v 0.707031 h -0.230469 v -0.697266 q -0.257813,-0.002 -0.484375,-0.04883 -0.226563,-0.04883 -0.392578,-0.125 v -0.386718 h 0.03125 q 0.03711,0.02734 0.132812,0.08008 0.0957,0.05078 0.185547,0.08398 0.101563,0.03711 0.236328,0.07031 0.136719,0.03125 0.291016,0.03711 v -0.845703 q -0.07813,-0.01563 -0.144531,-0.0293 -0.06641,-0.01563 -0.123047,-0.03125 -0.31836,-0.08008 -0.457031,-0.240234 -0.138672,-0.16211 -0.138672,-0.398438 0,-0.289062 0.226562,-0.488281 0.228516,-0.199219 0.636719,-0.232422 v -0.53125 h 0.230469 v 0.527344 q 0.197265,0.0039 0.404297,0.04687 0.207031,0.04297 0.347656,0.09961 v 0.382813 h -0.02734 q -0.146484,-0.08984 -0.306641,-0.158204 -0.158203,-0.07031 -0.417968,-0.08789 v 0.841797 q 0.05859,0.0098 0.126953,0.02734 0.06836,0.01563 0.11914,0.02539 0.291016,0.0625 0.449219,0.214844 0.160156,0.152344 0.160156,0.416015 z M 35.877327,24.277781 V 23.47114 q -0.208984,0.01563 -0.351563,0.115234 -0.142578,0.09766 -0.142578,0.273438 0,0.177734 0.105469,0.267578 0.105469,0.08984 0.388672,0.150391 z m 0.716797,0.767578 q 0,-0.183594 -0.115235,-0.267578 -0.113281,-0.08594 -0.371093,-0.134766 v 0.808594 q 0.234375,-0.02344 0.359375,-0.119141 0.126953,-0.0957 0.126953,-0.287109 z"
       style="font-size:4px"
       id="path1890" />
  </g>
  <path
     id="path2"
     d="m 34.348258,33.714338 v 0.164445 c 0,0.266503 0.03703,0.450901 0.110165,0.589687 0.07314,0.138788 0.185462,0.218864 0.27493,0.26658 0.08947,0.04772 0.152543,0.07395 0.189175,0.107274 0.03663,0.03333 0.06765,0.07475 0.08479,0.208446 a 0.16444444,0.16444444 0 0 0 0.184037,0.142283 0.16444444,0.16444444 0 0 0 0.05813,-0.01895 c 0.181251,0.498464 0.447098,0.842456 0.743212,0.842456 0.297194,0 0.564174,-0.341513 0.74546,-0.841171 a 0.16444444,0.16444444 0 0 0 0.05588,0.01766 0.16444444,0.16444444 0 0 0 0.184037,-0.142283 c 0.01714,-0.133693 0.04848,-0.175118 0.08511,-0.208446 0.03663,-0.03333 0.09939,-0.05956 0.188854,-0.107274 0.08947,-0.04772 0.201795,-0.127792 0.274931,-0.26658 0.07314,-0.138787 0.110164,-0.323184 0.110165,-0.589687 v -0.164445 h -0.657778 -0.164445 -1.644444 -0.164444 z m 0.356189,0.328889 h 0.314757 c 0.0124,0.172945 0.03318,0.343596 0.06327,0.507465 -0.0734,-0.05141 -0.143651,-0.07865 -0.194314,-0.105668 -0.0647,-0.03451 -0.101399,-0.0592 -0.13875,-0.130078 -0.02327,-0.04415 -0.03144,-0.170496 -0.04496,-0.271719 z m 2.262074,0 h 0.314436 c -0.01352,0.101223 -0.0217,0.227565 -0.04496,0.271719 -0.03735,0.07088 -0.07405,0.09557 -0.13875,0.130079 -0.05042,0.02689 -0.120096,0.05378 -0.19303,0.104704 0.02958,-0.163191 0.05016,-0.333373 0.06231,-0.506502 z m -1.056041,0.164445 h 0.230286 v 0.822222 h -0.279427 v -0.394731 h -0.230286 v -0.197205 c 0.164444,0 0.262982,-0.164509 0.279427,-0.230286 z m -0.246667,1.85835 c 0.06578,0.312445 -0.493333,0.262983 -0.493333,0.608316 h 1.644444 c 0,-0.345333 -0.559111,-0.295871 -0.493333,-0.608316 -0.09867,0.06578 -0.213778,0.114983 -0.328889,0.114983 -0.115111,0 -0.230222,-0.04921 -0.328889,-0.114983 z"
     style="fill:#ffdb00;fill-opacity:1;stroke-width:1" />
  <rect
     width="8.5139999"
     height="8.5139999"
     x="20.986"
     y="21.397179"
     fill="url(#j)"
     rx="1"
     ry="1"
     id="rect81-2"
     style="fill:url(#linearGradient1498);stroke:#5d0b0b;stroke-width:1;stroke-opacity:1" />
  <rect
     width="8.5139999"
     height="8.5139999"
     x="10.443745"
     y="31.801437"
     fill="url(#j)"
     rx="1"
     ry="1"
     id="rect81-9"
     style="fill:url(#linearGradient1513);stroke:#0b0b5d;stroke-width:1;stroke-opacity:1" />
  <rect
     width="8.5139999"
     height="8.5139999"
     x="20.986"
     y="31.801435"
     fill="url(#j)"
     rx="1"
     ry="1"
     id="rect81-3"
     style="fill:url(#linearGradient1528);stroke:#0b340b;stroke-width:1;stroke-opacity:1" />
  <path
     id="path1939"
     d="m 14.701076,22.48279 c -0.0861,0.35757 -0.21851,0.67871 -0.3973,0.96012 -0.17877,0.28142 -0.49716,0.6285 -0.9557,1.044 -0.45854,0.4155 -0.74933,0.73389 -0.87184,0.95571 -0.12249,0.22182 -0.18319,0.44695 -0.18319,0.67539 0,0.31784 0.10594,0.5827 0.31783,0.79459 0.21189,0.21189 0.47013,0.31783 0.77472,0.31783 0.54525,0 0.96698,-0.39813 1.24485,-0.83211 -0.0211,0.47453 -0.0993,0.85442 -0.23617,1.13891 -0.14733,0.30624 -0.37291,0.55967 -0.6776,0.76147 -0.20517,0.13589 -0.57497,0.25493 -1.10801,0.35757 l -0.0397,0.16995 h 2.12993 2.13213 l -0.0397,-0.16995 c -0.53304,-0.10264 -0.90283,-0.22168 -1.108,-0.35757 -0.30469,-0.20181 -0.53028,-0.45523 -0.6776,-0.76147 -0.13666,-0.28407 -0.21492,-0.66317 -0.23617,-1.1367 0.27788,0.43338 0.70245,0.8299 1.24705,0.8299 0.30459,0 0.56283,-0.10594 0.77472,-0.31783 0.21189,-0.21189 0.31783,-0.47675 0.31784,-0.79459 -10e-6,-0.22844 -0.0607,-0.45357 -0.1832,-0.67539 -0.1225,-0.22182 -0.4133,-0.54021 -0.87183,-0.95571 -0.45855,-0.4155 -0.77693,-0.76258 -0.95571,-1.044 -0.17879,-0.28141 -0.31122,-0.60255 -0.39729,-0.96012 z"
     style="font-style:normal;font-weight:normal;font-size:144px;font-family:'Bitstream Vera Sans';fill:#ffffff;fill-opacity:1;stroke:none;stroke-width:0.0706297px;stroke-linecap:butt;stroke-linejoin:miter;stroke-opacity:1" />
  <path
     id="path1935"
     d="m 25.252935,28.769999 c -0.10263,-0.39061 -0.24911,-0.75723 -0.43945,-1.09985 -0.19034,-0.34261 -0.55861,-0.87474 -1.10481,-1.59639 -0.40055,-0.52965 -0.64716,-0.86564 -0.73985,-1.00799 -0.15228,-0.23172 -0.26234,-0.4444 -0.3302,-0.63806 -0.0679,-0.19365 -0.1018,-0.38978 -0.1018,-0.5884 0,-0.36744 0.12248,-0.6753 0.36745,-0.92358 0.24496,-0.24827 0.54785,-0.3724 0.90867,-0.37241 0.36414,10e-6 0.68027,0.12911 0.94841,0.38731 0.20192,0.192 0.36578,0.47834 0.49158,0.85902 0.10923,-0.37406 0.26316,-0.65874 0.46178,-0.85406 0.27476,-0.26482 0.59254,-0.39723 0.95337,-0.39723 0.35751,0 0.6604,0.12331 0.90868,0.36992 0.24827,0.24662 0.3724,0.54041 0.37241,0.88137 -10e-6,0.29793 -0.0728,0.60827 -0.21848,0.93102 -0.14566,0.32276 -0.42704,0.74565 -0.84413,1.26868 -0.54289,0.68523 -0.93847,1.24798 -1.18674,1.68825 -0.19531,0.34758 -0.34428,0.71172 -0.44689,1.0924 z"
     style="font-style:normal;font-weight:normal;font-size:144px;font-family:'Bitstream Vera Sans';fill:#ffffff;fill-opacity:1;stroke:none;stroke-width:0.0706198px;stroke-linecap:butt;stroke-linejoin:miter;stroke-opacity:1" />
  <path
     id="text1928"
     d="m 14.700744,32.943446 c -0.67029,1.10036 -1.43971,2.13865 -2.28411,3.11168 0.84522,0.97255 1.62768,2.00823 2.28411,3.1183 0.65643,-1.11007 1.43889,-2.14575 2.28411,-3.1183 -0.8444,-0.97303 -1.61382,-2.01132 -2.28411,-3.11168 z"
     style="font-style:normal;font-weight:normal;font-size:144px;font-family:'Bitstream Vera Sans';fill:#ffffff;fill-opacity:1;stroke:none;stroke-width:0.0706198px;stroke-linecap:butt;stroke-linejoin:miter;stroke-opacity:1" />
  <rect
     width="8.5139999"
     height="8.5139999"
     x="20.986"
     y="31.801435"
     fill="url(#j)"
     rx="1"
     ry="1"
     id="rect1639"
     style="fill:url(#linearGradient1528);stroke:#0b340b;stroke-width:1;stroke-opacity:1" />
  <path
     id="path1937"
     d="m 25.241892,33.001923 c -0.39061,0 -0.71778,0.13131 -0.98426,0.39282 -0.26648,0.26152 -0.39944,0.57269 -0.39944,0.9335 0,0.29463 0.11365,0.60248 0.34206,0.92689 -0.19787,-0.16486 -0.39515,-0.26262 -0.7702,-0.26262 -0.73382,0 -1.26012,0.60237 -1.26012,1.35502 0,0.79808 0.58245,1.40578 1.35943,1.40577 0.77793,0 1.36168,-0.53063 1.64853,-1.17626 -0.0132,0.52634 -0.0932,0.94289 -0.24055,1.24909 -0.1473,0.30621 -0.37295,0.55944 -0.6775,0.76137 -0.20524,0.13572 -0.57489,0.25489 -1.10785,0.35751 l -0.0397,0.16993 h 2.12963 2.13184 l -0.0397,-0.16993 c -0.53296,-0.10262 -0.90261,-0.22179 -1.10784,-0.35751 -0.30456,-0.20193 -0.53021,-0.45516 -0.67751,-0.76137 -0.14731,-0.3062 -0.22731,-0.72275 -0.24055,-1.24909 0.28685,0.64563 0.8706,1.17626 1.64853,1.17626 0.77698,10e-6 1.35943,-0.60769 1.35943,-1.40577 0,-0.75265 -0.5263,-1.35502 -1.26012,-1.35502 -0.37505,0 -0.57233,0.0978 -0.7702,0.26262 0.22841,-0.32441 0.34206,-0.63226 0.34207,-0.92689 -10e-6,-0.36081 -0.13297,-0.67198 -0.39945,-0.9335 -0.26648,-0.26151 -0.59586,-0.39282 -0.98647,-0.39282 z"
     style="font-style:normal;font-weight:normal;font-size:144px;font-family:'Bitstream Vera Sans';fill:#fff5ff;fill-opacity:1;stroke:none;stroke-width:0.0706198px;stroke-linecap:butt;stroke-linejoin:miter;stroke-opacity:1" />
  <path
     style="color:#000000;font-style:normal;font-variant:normal;font-weight:normal;font-stretch:normal;font-size:medium;line-height:normal;font-family:sans-serif;font-variant-ligatures:normal;font-variant-position:normal;font-variant-caps:normal;font-variant-numeric:normal;font-variant-alternates:normal;font-variant-east-asian:normal;font-feature-settings:normal;font-variation-settings:normal;text-indent:0;text-align:start;text-decoration:none;text-decoration-line:none;text-decoration-style:solid;text-decoration-color:#000000;letter-spacing:normal;word-spacing:normal;text-transform:none;writing-mode:lr-tb;direction:ltr;text-orientation:mixed;dominant-baseline:auto;baseline-shift:baseline;text-anchor:start;white-space:normal;shape-padding:0;shape-margin:0;inline-size:0;clip-rule:nonzero;display:inline;overflow:visible;visibility:visible;opacity:1;isolation:auto;mix-blend-mode:normal;color-interpolation:sRGB;color-interpolation-filters:linearRGB;solid-color:#000000;solid-opacity:1;vector-effect:none;fill:#b3b3b3;fill-opacity:1;fill-rule:nonzero;stroke:none;stroke-linecap:butt;stroke-linejoin:miter;stroke-miterlimit:4;stroke-dasharray:none;stroke-dashoffset:0;stroke-opacity:1;color-rendering:auto;image-rendering:auto;shape-rendering:auto;text-rendering:auto;enable-background:accumulate;stop-color:#000000;stop-opacity:1"
     d="m 33.854865,20.917429 c -0.985377,0 -1.839844,0.744101 -1.839844,1.71289 v 3.837891 c 0,0.968789 0.854467,1.714844 1.839844,1.714844 h 4.253906 c 0.985378,0 1.839844,-0.746055 1.839844,-1.714844 v -3.837891 c 0,-0.968789 -0.854466,-1.71289 -1.839844,-1.71289 z m 0,1 h 4.253906 c 0.498763,0 0.839844,0.336048 0.839844,0.71289 v 3.837891 c 0,0.376843 -0.341081,0.714844 -0.839844,0.714844 h -4.253906 c -0.498763,0 -0.839844,-0.338001 -0.839844,-0.714844 v -3.837891 c 0,-0.376842 0.341081,-0.71289 0.839844,-0.71289 z"
     id="rect99-8" />
  <path
     id="path1261"
     style="fill:#2a035b;stroke:none;stroke-width:1px;stroke-linecap:butt;stroke-linejoin:miter;stroke-opacity:1;fill-opacity:1"
     d="M 39.394531 21.408203 L 38.6875 22.115234 C 38.849829 22.247934 38.949219 22.432453 38.949219 22.630859 L 39.949219 22.630859 C 39.949219 22.144955 39.733139 21.715526 39.394531 21.408203 z " />
  <path
     id="path1384"
     style="fill:#2a035b;stroke:none;stroke-width:1px;stroke-linecap:butt;stroke-linejoin:miter;stroke-opacity:1;fill-opacity:1"
     d="M 32.015625 26.46875 C 32.015625 26.955067 32.229254 27.385492 32.568359 27.693359 L 33.277344 26.984375 C 33.114375 26.851111 33.015625 26.667583 33.015625 26.46875 L 32.015625 26.46875 z " />
  <path
     id="path1328"
     style="fill:#2a035b;stroke:none;stroke-width:1px;stroke-linecap:butt;stroke-linejoin:miter;stroke-opacity:1;fill-opacity:1"
     d="M 33.855469 20.917969 C 33.364736 20.917969 32.904784 21.101304 32.568359 21.40625 L 33.277344 22.115234 C 33.423239 21.996425 33.619911 21.917969 33.855469 21.917969 L 33.855469 20.917969 z " />
  <path
     id="path1440"
     style="fill:#2a035b;stroke:none;stroke-width:1px;stroke-linecap:butt;stroke-linejoin:miter;stroke-opacity:1;fill-opacity:1"
     d="M 38.6875 26.984375 C 38.541504 27.104214 38.345581 27.183594 38.109375 27.183594 L 38.109375 28.183594 C 38.600528 28.183594 39.058028 27.997306 39.394531 27.691406 L 38.6875 26.984375 z " />
  <path
     style="fill:#2a035b;stroke:none;stroke-width:1px;stroke-linecap:butt;stroke-linejoin:miter;stroke-opacity:1;fill-opacity:1"
     d="m 38.948615,26.46821 h 1 v -1.918946 h -1 z"
     id="path1463" />
  <path
     style="fill:#2a035b;fill-opacity:1;stroke:none;stroke-width:1px;stroke-linecap:butt;stroke-linejoin:miter;stroke-opacity:1"
     d="m 32.015021,24.549265 h 1 v -1.918946 h -1 z"
     id="path1463-9" />
  <path
     style="fill:#2a035b;fill-opacity:1;stroke:none;stroke-width:1px;stroke-linecap:butt;stroke-linejoin:miter;stroke-opacity:1"
     d="m 35.981818,20.917429 v 1 h 2.126953 v -1 z"
     id="path1463-9-6" />
  <path
     style="fill:#2a035b;fill-opacity:1;stroke:none;stroke-width:1px;stroke-linecap:butt;stroke-linejoin:miter;stroke-opacity:1"
     d="m 33.854865,27.183054 v 1 h 2.126953 v -1 z"
     id="path1463-9-6-4" />
  <g
     aria-label="All-in"
     id="text1888"
     style="font-style:normal;font-weight:normal;font-size:4px;line-height:1.25;font-family:sans-serif;fill:#000000;fill-opacity:1;stroke:none">
    <path
       d="M 26.702061,11.184394 H 25.92667 l -0.201172,-0.587891 h -1.078125 l -0.201172,0.587891 h -0.755859 l 1.074219,-2.9082032 h 0.863281 z M 25.543858,10.0633 25.186436,9.0203314 24.829014,10.0633 Z"
       style="font-weight:bold;font-size:4px;fill:#000000"
       id="path1893" />
    <path
       d="M 27.784092,11.184394 H 27.080967 V 8.1453314 h 0.703125 z"
       style="font-weight:bold;font-size:4px;fill:#000000"
       id="path1895" />
    <path
       d="M 29.151279,11.184394 H 28.448154 V 8.1453314 h 0.703125 z"
       style="font-weight:bold;font-size:4px;fill:#000000"
       id="path1897" />
    <path
       d="M 31.188389,10.172675 H 29.698154 V 9.6101751 h 1.490235 z"
       style="font-weight:bold;font-size:4px;fill:#000000"
       id="path1899" />
    <path
       d="M 32.438389,11.184394 H 31.735264 V 8.9910345 h 0.703125 z M 32.45792,8.6785345 H 31.715733 V 8.1453314 h 0.742187 z"
       style="font-weight:bold;font-size:4px;fill:#000000"
       id="path1901" />
    <path
       d="m 35.305576,11.184394 h -0.707031 v -1.087891 q 0,-0.1328122 -0.01367,-0.2636716 -0.01367,-0.1328125 -0.04687,-0.1953125 -0.03906,-0.072266 -0.115234,-0.1054688 -0.07422,-0.033203 -0.208985,-0.033203 -0.0957,0 -0.195312,0.03125 -0.09766,0.03125 -0.212891,0.099609 V 11.184394 H 33.102451 V 8.9910345 h 0.703125 V 9.233222 q 0.1875,-0.1464844 0.359375,-0.2246094 0.173828,-0.078125 0.384766,-0.078125 0.355469,0 0.554687,0.2070313 0.201172,0.2070312 0.201172,0.6191406 z"
       style="font-weight:bold;font-size:4px;fill:#000000"
       id="path1903" />
  </g>
</svg>
